<svg width="1200" height="400" viewBox="0 0 1200 400" xmlns="http://www.w3.org/2000/svg">
  <rect width="1200" height="400" fill="#F5F1E8"/>

  <!-- Isotipo: centollo minimal geométrico -->
  <g transform="translate(120,80)" stroke="#0E2A47" stroke-width="10" fill="none" stroke-linecap="round" stroke-linejoin="round">
    <ellipse cx="120" cy="100" rx="78" ry="58"/>
    <path d="M42 95 L5 82"/>
    <path d="M42 118 L5 132"/>
    <path d="M198 95 L235 82"/>
    <path d="M198 118 L235 132"/>
    <path d="M79 54 L62 28"/>
    <path d="M160 54 L177 28"/>
    <path d="M58 160 L32 188"/>
    <path d="M92 165 L72 198"/>
    <path d="M182 160 L208 188"/>
    <path d="M148 165 L168 198"/>
    <circle cx="100" cy="92" r="4" fill="#0E2A47"/>
    <circle cx="140" cy="92" r="4" fill="#0E2A47"/>
  </g>

  <!-- Wordmark -->
  <text x="430" y="220" font-family="Cormorant Garamond, Georgia, serif" font-size="118" fill="#0E2A47" letter-spacing="2">HUMAMI</text>
  <text x="435" y="265" font-family="Inter, Arial, sans-serif" font-size="24" fill="#0E2A47" opacity="0.75" letter-spacing="3">GALICIAN CRAFT KITCHEN</text>
</svg>
