<svg width="1400" height="420" viewBox="0 0 1400 420" xmlns="http://www.w3.org/2000/svg">
  <rect width="1400" height="420" fill="#FFFFFF"/>

  <!-- H como bloque + centollo encima -->
  <g transform="translate(90,65)">
    <rect x="0" y="18" width="250" height="280" rx="30" fill="none" stroke="#0E2A47" stroke-width="10"/>
    <path d="M70 75 V240 M180 75 V240 M70 158 H180" stroke="#0E2A47" stroke-width="13" stroke-linecap="round"/>

    <!-- Centollo reconocible sobre el bloque -->
    <g transform="translate(40,-8)" fill="none" stroke="#0E2A47" stroke-width="6.5" stroke-linecap="round" stroke-linejoin="round">
      <path d="M48 52 C52 30, 74 14, 99 14 C126 14, 148 30, 149 53 C150 75, 127 93, 98 94 C69 95, 47 78, 48 52 Z"/>
      <path d="M51 50 L33 39"/>
      <path d="M52 62 L31 65"/>
      <path d="M146 50 L164 39"/>
      <path d="M145 62 L166 65"/>
      <circle cx="86" cy="47" r="2.3" fill="#0E2A47"/>
      <circle cx="109" cy="47" r="2.3" fill="#0E2A47"/>
    </g>
  </g>

  <text x="430" y="240" font-family="Playfair Display, Georgia, serif" font-size="122" fill="#0E2A47" letter-spacing="2">UMAMI</text>
  <text x="430" y="290" font-family="Inter, Arial, sans-serif" font-size="24" fill="#0E2A47" opacity="0.78" letter-spacing="2.2">EL SABOR QUE EMPIEZA EN HUGO</text>
</svg>
